<svg xmlns="http://www.w3.org/2000/svg" xmlns:xlink="http://www.w3.org/1999/xlink" viewBox="0 0 86.448 88.004">
  <defs>
    <style>
      #Autoplay .cls-1 {
        fill: #fff;
      }

      #Autoplay .cls-2 {
        filter: url(#Path_598);
      }

      #Autoplay .cls-3 {
        filter: url(#Path_597);
      }
    </style>
    <filter id="Path_597" x="22.857" y="19.231" width="43.394" height="45.608" filterUnits="userSpaceOnUse">
      <feOffset dy="3" input="SourceAlpha"/>
      <feGaussianBlur stdDeviation="3" result="blur"/>
      <feFlood/>
      <feComposite operator="in" in2="blur"/>
      <feComposite in="SourceGraphic"/>
    </filter>
    <filter id="Path_598" x="0" y="0" width="86.448" height="88.004" filterUnits="userSpaceOnUse">
      <feOffset dy="3" input="SourceAlpha"/>
      <feGaussianBlur stdDeviation="3" result="blur-2"/>
      <feFlood/>
      <feComposite operator="in" in2="blur-2"/>
      <feComposite in="SourceGraphic"/>
    </filter>
  </defs>
  <g id="Autoplay" transform="translate(-4.262 -7.017)">
    <g class="cls-3" transform="matrix(1, 0, 0, 1, 4.26, 7.02)">
      <path id="Path_597-2" data-name="Path 597" class="cls-1" d="M50.93,32.25a1.94,1.94,0,0,1,1.94,1.34l8.5,24.32c.41,1.19-.07,1.94-1.38,1.94H56a1.82,1.82,0,0,1-1.9-1.38l-1.16-3.39h-8.2l-1.16,3.39a1.89,1.89,0,0,1-1.94,1.38h-4c-1.3,0-1.79-.75-1.38-1.94L44.8,33.59a1.89,1.89,0,0,1,1.91-1.34ZM51.38,49,48.8,41.31,46.45,49Z" transform="translate(-4.26 -7.02)"/>
    </g>
    <g class="cls-2" transform="matrix(1, 0, 0, 1, 4.26, 7.02)">
      <path id="Path_598-2" data-name="Path 598" class="cls-1" d="M70.2,53.51c-.14,0-.28.66-.41,1.08a22.59,22.59,0,1,1-4.21-21l-6,3.39L81.15,50l.56-25.46-5.13,2.91a35,35,0,1,0-.74,42.12c1.87-2.39-3-11.55-5-15C70.43,53.81,70.39,53.55,70.2,53.51Z" transform="translate(-4.26 -7.02)"/>
    </g>
  </g>
</svg>
